<svg xmlns="http://www.w3.org/2000/svg" version="1.1" xmlns:xlink="http://www.w3.org/1999/xlink" xmlns:svgjs="http://svgjs.dev/svgjs" width="1480" height="820" preserveAspectRatio="none" viewBox="0 0 1480 820"><g mask="url(&quot;#SvgjsMask3278&quot;)" fill="none"><rect width="1480" height="820" x="0" y="0" fill="url(&quot;#SvgjsLinearGradient3279&quot;)"></rect><path d="M722 651L721 321" stroke-width="6" stroke="url(&quot;#SvgjsLinearGradient3280&quot;)" stroke-linecap="round" class="Up"></path><path d="M840 233L839 -299" stroke-width="8" stroke="url(&quot;#SvgjsLinearGradient3280&quot;)" stroke-linecap="round" class="Up"></path><path d="M4 632L3 1016" stroke-width="8" stroke="url(&quot;#SvgjsLinearGradient3280&quot;)" stroke-linecap="round" class="Up"></path><path d="M1145 6L1144 -390" stroke-width="10" stroke="url(&quot;#SvgjsLinearGradient3280&quot;)" stroke-linecap="round" class="Up"></path><path d="M926 96L925 312" stroke-width="6" stroke="url(&quot;#SvgjsLinearGradient3281&quot;)" stroke-linecap="round" class="Down"></path><path d="M433 620L432 346" stroke-width="10" stroke="url(&quot;#SvgjsLinearGradient3282&quot;)" stroke-linecap="round" class="Down"></path><path d="M1116 443L1115 -118" stroke-width="8" stroke="url(&quot;#SvgjsLinearGradient3281&quot;)" stroke-linecap="round" class="Down"></path><path d="M1160 299L1159 576" stroke-width="8" stroke="url(&quot;#SvgjsLinearGradient3282&quot;)" stroke-linecap="round" class="Down"></path><path d="M1051 83L1050 512" stroke-width="6" stroke="url(&quot;#SvgjsLinearGradient3283&quot;)" stroke-linecap="round" class="Up"></path><path d="M1411 598L1410 283" stroke-width="6" stroke="url(&quot;#SvgjsLinearGradient3281&quot;)" stroke-linecap="round" class="Down"></path><path d="M1142 102L1141 329" stroke-width="8" stroke="url(&quot;#SvgjsLinearGradient3283&quot;)" stroke-linecap="round" class="Up"></path><path d="M816 643L815 314" stroke-width="8" stroke="url(&quot;#SvgjsLinearGradient3281&quot;)" stroke-linecap="round" class="Down"></path><path d="M1407 467L1406 159" stroke-width="10" stroke="url(&quot;#SvgjsLinearGradient3283&quot;)" stroke-linecap="round" class="Up"></path><path d="M911 725L910 294" stroke-width="6" stroke="url(&quot;#SvgjsLinearGradient3280&quot;)" stroke-linecap="round" class="Up"></path><path d="M975 561L974 -34" stroke-width="8" stroke="url(&quot;#SvgjsLinearGradient3283&quot;)" stroke-linecap="round" class="Up"></path><path d="M24 355L23 -54" stroke-width="6" stroke="url(&quot;#SvgjsLinearGradient3283&quot;)" stroke-linecap="round" class="Up"></path><path d="M780 691L779 380" stroke-width="8" stroke="url(&quot;#SvgjsLinearGradient3281&quot;)" stroke-linecap="round" class="Down"></path><path d="M455 336L454 736" stroke-width="8" stroke="url(&quot;#SvgjsLinearGradient3280&quot;)" stroke-linecap="round" class="Up"></path><path d="M1248 521L1247 132" stroke-width="10" stroke="url(&quot;#SvgjsLinearGradient3282&quot;)" stroke-linecap="round" class="Down"></path><path d="M996 126L995 639" stroke-width="8" stroke="url(&quot;#SvgjsLinearGradient3281&quot;)" stroke-linecap="round" class="Down"></path><path d="M1213 459L1212 -134" stroke-width="10" stroke="url(&quot;#SvgjsLinearGradient3283&quot;)" stroke-linecap="round" class="Up"></path><path d="M135 171L134 -293" stroke-width="6" stroke="url(&quot;#SvgjsLinearGradient3280&quot;)" stroke-linecap="round" class="Up"></path><path d="M216 153L215 -143" stroke-width="10" stroke="url(&quot;#SvgjsLinearGradient3281&quot;)" stroke-linecap="round" class="Down"></path><path d="M600 389L599 132" stroke-width="8" stroke="url(&quot;#SvgjsLinearGradient3281&quot;)" stroke-linecap="round" class="Down"></path><path d="M220 637L219 240" stroke-width="6" stroke="url(&quot;#SvgjsLinearGradient3280&quot;)" stroke-linecap="round" class="Up"></path><path d="M708 596L707 78" stroke-width="8" stroke="url(&quot;#SvgjsLinearGradient3283&quot;)" stroke-linecap="round" class="Up"></path><path d="M1005 12L1004 275" stroke-width="8" stroke="url(&quot;#SvgjsLinearGradient3283&quot;)" stroke-linecap="round" class="Up"></path><path d="M1326 457L1325 15" stroke-width="6" stroke="url(&quot;#SvgjsLinearGradient3280&quot;)" stroke-linecap="round" class="Up"></path><path d="M437 87L436 -182" stroke-width="6" stroke="url(&quot;#SvgjsLinearGradient3280&quot;)" stroke-linecap="round" class="Up"></path><path d="M1219 588L1218 158" stroke-width="8" stroke="url(&quot;#SvgjsLinearGradient3283&quot;)" stroke-linecap="round" class="Up"></path><path d="M149 435L148 920" stroke-width="6" stroke="url(&quot;#SvgjsLinearGradient3280&quot;)" stroke-linecap="round" class="Up"></path><path d="M1432 4L1431 221" stroke-width="6" stroke="url(&quot;#SvgjsLinearGradient3282&quot;)" stroke-linecap="round" class="Down"></path><path d="M1155 409L1154 700" stroke-width="8" stroke="url(&quot;#SvgjsLinearGradient3282&quot;)" stroke-linecap="round" class="Down"></path><path d="M1246 448L1245 1010" stroke-width="10" stroke="url(&quot;#SvgjsLinearGradient3282&quot;)" stroke-linecap="round" class="Down"></path><path d="M1353 374L1352 -12" stroke-width="6" stroke="url(&quot;#SvgjsLinearGradient3282&quot;)" stroke-linecap="round" class="Down"></path><path d="M1389 604L1388 140" stroke-width="10" stroke="url(&quot;#SvgjsLinearGradient3280&quot;)" stroke-linecap="round" class="Up"></path><path d="M68 425L67 908" stroke-width="8" stroke="url(&quot;#SvgjsLinearGradient3281&quot;)" stroke-linecap="round" class="Down"></path></g><defs><mask id="SvgjsMask3278"><rect width="1480" height="820" fill="#ffffff"></rect></mask><linearGradient x1="50%" y1="0%" x2="50%" y2="100%" gradientUnits="userSpaceOnUse" id="SvgjsLinearGradient3279"><stop stop-color="rgba(255, 255, 255, 1)" offset="0"></stop><stop stop-color="rgba(204, 207, 255, 1)" offset="0.65"></stop></linearGradient><linearGradient x1="0%" y1="100%" x2="0%" y2="0%" id="SvgjsLinearGradient3280"><stop stop-color="rgba(255, 255, 255, 0)" offset="0"></stop><stop stop-color="rgba(255, 255, 255, 1)" offset="1"></stop></linearGradient><linearGradient x1="0%" y1="0%" x2="0%" y2="100%" id="SvgjsLinearGradient3281"><stop stop-color="rgba(230, 230, 250, 0)" offset="0"></stop><stop stop-color="rgba(230, 230, 250, 1)" offset="1"></stop></linearGradient><linearGradient x1="0%" y1="0%" x2="0%" y2="100%" id="SvgjsLinearGradient3282"><stop stop-color="rgba(255, 255, 255, 0)" offset="0"></stop><stop stop-color="rgba(255, 255, 255, 1)" offset="1"></stop></linearGradient><linearGradient x1="0%" y1="100%" x2="0%" y2="0%" id="SvgjsLinearGradient3283"><stop stop-color="rgba(230, 230, 250, 0)" offset="0"></stop><stop stop-color="rgba(230, 230, 250, 1)" offset="1"></stop></linearGradient></defs></svg>